# xmcd
#
# Track frame offsets:
#	150
#	10048
#	35708
#	54309
#	73027
#	87594
#	101702
#	118671
#	140631
#	160499
#	175888
#	190634
#	205361
#	220546
#	240585
#	260147
#	278293
#	290768
#	306545
#
# Disc length: 4316 seconds
#
# Revision: 7
# Processed by: cddbd v1.5.2PL0 Copyright (c) Steve Scherf et al.
# Submitted via: EZCDAudioConverter 2.1.7.1
#
DISCID=2110da13
DTITLE=LEONARDO - TODAS AS COISAS DO MUNDO-AO VIVO
DYEAR=2002
DGENRE=SERANEJA
TTITLE0=LEONARDO - FELICIDADE
TTITLE1=LEONARDO - CORAÇÃO ESPINHADO
TTITLE2=LEONARDO - QUERO COLO
TTITLE3=LEONARDO - UM SONHADOR
TTITLE4=LEONARDO - NÃO APRENDI A DIZER ADEUS
TTITLE5=LEONARDO - NUVEM DE LÁGRIMA
TTITLE6=LEONARDO - SAUDADE DE MINHA TERRA
TTITLE7=LEONARDO - MANO
TTITLE8=LEONARDO - TEMPORAL DE AMOR
TTITLE9=LEONARDO - TÔ FORA
TTITLE10=LEONARDO - TODAS AS COISAS DO MUNDO
TTITLE11=LEONARDO - BOTO PRA REMEXER
TTITLE12=LEONARDO - CUMADE E CUMPADE
TTITLE13=LEONARDO - DEIXARIA TUDO
TTITLE14=LEONARDO - EU JURO
TTITLE15=LEONARDO - A DISTÂNCIA
TTITLE16=FAIXA 17 - TALISMÃ
TTITLE17=LEONARDO - CADÊ VOCÊ - SONHO POR SONHO - NÃO OLHE ASSIM
TTITLE18=LEONARDO - ENTRE TAPAS E BEIJOS
EXTD=
EXTT0=
EXTT1=
EXTT2=
EXTT3=
EXTT4=
EXTT5=
EXTT6=
EXTT7=
EXTT8=
EXTT9=
EXTT10=
EXTT11=
EXTT12=
EXTT13=
EXTT14=
EXTT15=
EXTT16=
EXTT17=
EXTT18=
PLAYORDER=
